<?xml version="1.0" encoding="utf-8"?>
<!-- Generator: Adobe Illustrator 13.0.0, SVG Export Plug-In . SVG Version: 6.00 Build 14948)  -->
<!DOCTYPE svg PUBLIC "-//W3C//DTD SVG 1.1//EN" "http://www.w3.org/Graphics/SVG/1.1/DTD/svg11.dtd">
<svg version="1.1"
	 id="svg2" inkscape:export-filename="/media/vgb/Transcend1/BU8112013/Vladimir/INkscape/Designcrowd/periop/p1.png" xmlns:cc="http://creativecommons.org/ns#" inkscape:version="0.48.3.1 r9886" xmlns:dc="http://purl.org/dc/elements/1.1/" sodipodi:docname="p2.svg" inkscape:export-xdpi="90" xmlns:sodipodi="http://sodipodi.sourceforge.net/DTD/sodipodi-0.dtd" inkscape:export-ydpi="90" xmlns:svg="http://www.w3.org/2000/svg" xmlns:rdf="http://www.w3.org/1999/02/22-rdf-syntax-ns#" xmlns:inkscape="http://www.inkscape.org/namespaces/inkscape"
	 xmlns="http://www.w3.org/2000/svg" xmlns:xlink="http://www.w3.org/1999/xlink" x="0px" y="0px" width="1200px" height="1000px"
	 viewBox="0 0 1200 1000" enable-background="new 0 0 1200 1000" xml:space="preserve">
<defs>
	
	<inkscape:path-effect  id="path-effect7712" effect="spiro" is_visible="true"></inkscape:path-effect>
	<inkscape:path-effect  id="path-effect7709" effect="spiro" is_visible="true"></inkscape:path-effect>
	<inkscape:path-effect  id="path-effect7580" effect="spiro" is_visible="true"></inkscape:path-effect>
	<inkscape:path-effect  id="path-effect7576" effect="spiro" is_visible="true"></inkscape:path-effect>
</defs>
<sodipodi:namedview  id="base" pagecolor="#ffffff" bordercolor="#666666" borderopacity="1.0" inkscape:pageopacity="0.0" inkscape:pageshadow="2" inkscape:zoom="0.49497475" inkscape:cx="583.5088" inkscape:cy="535.50082" inkscape:document-units="px" inkscape:current-layer="layer1" showgrid="false" showguides="true" inkscape:guide-bbox="true" inkscape:window-width="1535" inkscape:window-height="876" inkscape:window-x="65" inkscape:window-y="24" inkscape:window-maximized="1">
	</sodipodi:namedview>
<g id="layer2" inkscape:groupmode="layer" inkscape:label="pozadina">
	<rect id="rect7652" x="1295.016" y="107.076" fill="#FFFFFF" width="1200.001" height="999.999"/>
</g>
<g id="layer1" transform="translate(0,-52.362183)" inkscape:groupmode="layer" inkscape:label="Layer 1">
	<g id="g8551" transform="matrix(1.5745943,0,0,1.5745943,-338.67169,-148.78364)">
		<g id="text3001">
			
				<radialGradient id="path5500_1_" cx="831.2645" cy="360.509" r="155.3882" gradientTransform="matrix(5.0746 0 0 0.8304 -3618.3059 247.4946)" gradientUnits="userSpaceOnUse">
				<stop  offset="0" style="stop-color:#4D4D4D"/>
				<stop  offset="1" style="stop-color:#000000"/>
			</radialGradient>
			<path id="path5500" inkscape:connector-curvature="0" fill="url(#path5500_1_)" d="M485.091,549.554
				c0-6.747-1.668-11.936-5.004-15.569s-7.784-5.449-13.345-5.449c-3.113,0-5.56,0.111-7.339,0.334
				c-1.706,0.223-3.077,0.482-4.114,0.778v36.476c1.26,1.038,3.076,2.039,5.449,3.002c2.372,0.964,4.967,1.446,7.784,1.446
				c2.966,0,5.486-0.519,7.562-1.557c2.15-1.112,3.892-2.595,5.226-4.448c1.335-1.928,2.298-4.152,2.891-6.673
				C484.794,555.3,485.091,552.52,485.091,549.554 M495.878,549.554c-0.001,4.374-0.594,8.416-1.779,12.122
				c-1.113,3.706-2.78,6.895-5.004,9.563c-2.224,2.668-4.967,4.745-8.229,6.227c-3.188,1.483-6.858,2.224-11.009,2.224
				c-3.336,0-6.302-0.445-8.897-1.334c-2.52-0.89-4.411-1.743-5.671-2.558v23.13h-10.342v-76.621
				c2.447-0.593,5.486-1.223,9.119-1.89c3.707-0.742,7.97-1.112,12.789-1.112c4.449,0,8.452,0.705,12.011,2.112
				c3.558,1.409,6.598,3.41,9.119,6.005c2.52,2.595,4.447,5.783,5.783,9.563C495.173,540.695,495.877,544.883,495.878,549.554"/>
			
				<radialGradient id="path5502_1_" cx="831.2645" cy="360.5096" r="155.3875" gradientTransform="matrix(5.0746 0 0 0.8304 -3618.3059 247.4946)" gradientUnits="userSpaceOnUse">
				<stop  offset="0" style="stop-color:#4D4D4D"/>
				<stop  offset="1" style="stop-color:#000000"/>
			</radialGradient>
			<path id="path5502" inkscape:connector-curvature="0" fill="url(#path5502_1_)" d="M504.695,549.554
				c0-5.115,0.741-9.563,2.224-13.345c1.482-3.854,3.446-7.043,5.894-9.563c2.447-2.521,5.264-4.411,8.451-5.672
				c3.188-1.26,6.45-1.89,9.786-1.89c7.785,0,13.752,2.447,17.905,7.339c4.152,4.819,6.227,12.196,6.227,22.131
				c0,0.445,0,1.038,0,1.779c0,0.667-0.037,1.297-0.111,1.89h-39.59c0.445,6.005,2.187,10.565,5.227,13.679
				c3.04,3.114,7.784,4.671,14.234,4.671c3.633,0,6.672-0.296,9.119-0.889c2.521-0.667,4.411-1.297,5.672-1.891l1.446,8.674
				c-1.261,0.667-3.486,1.372-6.673,2.112c-3.113,0.742-6.672,1.112-10.675,1.112c-5.042,0-9.415-0.74-13.122-2.223
				c-3.633-1.557-6.635-3.67-9.008-6.338c-2.372-2.669-4.152-5.82-5.338-9.453C505.25,557.969,504.694,553.928,504.695,549.554
				 M544.395,543.883c0.074-4.67-1.112-8.489-3.559-11.454c-2.372-3.04-5.672-4.56-9.897-4.56c-2.372,0-4.485,0.482-6.339,1.446
				c-1.779,0.89-3.299,2.076-4.559,3.559c-1.26,1.483-2.261,3.188-3.002,5.115c-0.667,1.928-1.113,3.892-1.335,5.894H544.395"/>
			
				<radialGradient id="path5504_1_" cx="831.2639" cy="360.5099" r="155.3893" gradientTransform="matrix(5.0746 0 0 0.8304 -3618.3059 247.4946)" gradientUnits="userSpaceOnUse">
				<stop  offset="0" style="stop-color:#4D4D4D"/>
				<stop  offset="1" style="stop-color:#000000"/>
			</radialGradient>
			<path id="path5504" inkscape:connector-curvature="0" fill="url(#path5504_1_)" d="M588.77,519.306
				c0.889,0,1.89,0.074,3.002,0.222c1.186,0.074,2.335,0.223,3.447,0.445c1.112,0.148,2.113,0.334,3.003,0.556
				c0.964,0.148,1.668,0.296,2.112,0.445l-1.779,9.008c-0.816-0.296-2.187-0.63-4.115-1.001c-1.853-0.445-4.263-0.667-7.228-0.667
				c-1.928,0.001-3.855,0.223-5.783,0.667c-1.852,0.371-3.077,0.63-3.67,0.778v48.598h-10.342v-55.381
				c2.446-0.89,5.486-1.706,9.119-2.447C580.17,519.714,584.248,519.306,588.77,519.306"/>
			
				<radialGradient id="path5506_1_" cx="831.2645" cy="360.5096" r="155.3879" gradientTransform="matrix(5.0746 0 0 0.8304 -3618.3059 247.4946)" gradientUnits="userSpaceOnUse">
				<stop  offset="0" style="stop-color:#4D4D4D"/>
				<stop  offset="1" style="stop-color:#000000"/>
			</radialGradient>
			<path id="path5506" inkscape:connector-curvature="0" fill="url(#path5506_1_)" d="M618.146,578.357h-10.342V520.53h10.342
				V578.357 M612.919,510.076c-1.853,0-3.447-0.593-4.782-1.779c-1.26-1.26-1.89-2.929-1.89-5.004s0.63-3.707,1.89-4.893
				c1.335-1.26,2.929-1.89,4.782-1.89c1.854,0,3.41,0.63,4.671,1.89c1.335,1.186,2.002,2.817,2.002,4.893s-0.667,3.744-2.002,5.004
				C616.329,509.483,614.773,510.076,612.919,510.076"/>
			
				<radialGradient id="path5508_1_" cx="831.2651" cy="360.5093" r="155.3858" gradientTransform="matrix(5.0746 0 0 0.8304 -3618.3059 247.4946)" gradientUnits="userSpaceOnUse">
				<stop  offset="0" style="stop-color:#4D4D4D"/>
				<stop  offset="1" style="stop-color:#000000"/>
			</radialGradient>
			<path id="path5508" inkscape:connector-curvature="0" fill="url(#path5508_1_)" d="M684.463,549.443
				c0,4.596-0.667,8.748-2.002,12.455c-1.334,3.707-3.225,6.895-5.671,9.563c-2.373,2.669-5.227,4.745-8.563,6.228
				c-3.336,1.408-6.969,2.112-10.898,2.112c-3.93,0-7.562-0.704-10.898-2.112c-3.335-1.483-6.227-3.559-8.673-6.228
				c-2.372-2.669-4.226-5.857-5.56-9.563c-1.335-3.707-2.002-7.859-2.002-12.455c0-4.523,0.667-8.638,2.002-12.344
				c1.334-3.781,3.188-7.006,5.56-9.675c2.447-2.669,5.338-4.708,8.673-6.116c3.336-1.483,6.969-2.224,10.898-2.224
				c3.929,0,7.562,0.741,10.898,2.224c3.336,1.408,6.19,3.448,8.563,6.116c2.446,2.669,4.337,5.894,5.671,9.675
				C683.796,540.806,684.463,544.921,684.463,549.443 M673.676,549.443c0-6.525-1.483-11.677-4.448-15.458
				c-2.891-3.855-6.858-5.783-11.899-5.783c-5.042,0-9.045,1.928-12.01,5.783c-2.891,3.781-4.337,8.933-4.337,15.458
				c0,6.524,1.446,11.714,4.337,15.569c2.965,3.781,6.969,5.671,12.01,5.671c5.042,0,9.008-1.89,11.899-5.671
				C672.193,561.157,673.676,555.967,673.676,549.443"/>
			
				<radialGradient id="path5510_1_" cx="831.2651" cy="360.509" r="155.3873" gradientTransform="matrix(5.0746 0 0 0.8304 -3618.3059 247.4946)" gradientUnits="userSpaceOnUse">
				<stop  offset="0" style="stop-color:#4D4D4D"/>
				<stop  offset="1" style="stop-color:#000000"/>
			</radialGradient>
			<path id="path5510" inkscape:connector-curvature="0" fill="url(#path5510_1_)" d="M736.539,549.554
				c0-6.747-1.668-11.936-5.004-15.569s-7.784-5.449-13.344-5.449c-3.114,0-5.561,0.111-7.34,0.334
				c-1.705,0.223-3.077,0.482-4.114,0.778v36.476c1.26,1.038,3.077,2.039,5.449,3.002c2.372,0.964,4.967,1.446,7.784,1.446
				c2.966,0,5.486-0.519,7.561-1.557c2.15-1.112,3.892-2.595,5.227-4.448c1.334-1.928,2.298-4.152,2.891-6.673
				C736.242,555.3,736.539,552.52,736.539,549.554 M747.326,549.554c0,4.374-0.593,8.416-1.779,12.122
				c-1.112,3.706-2.78,6.895-5.004,9.563s-4.967,4.745-8.229,6.227c-3.188,1.483-6.858,2.224-11.01,2.224
				c-3.336,0-6.302-0.445-8.896-1.334c-2.521-0.89-4.411-1.743-5.672-2.558v23.13h-10.342v-76.621
				c2.447-0.593,5.486-1.223,9.119-1.89c3.706-0.742,7.97-1.112,12.789-1.112c4.448,0,8.451,0.705,12.01,2.112
				c3.559,1.409,6.598,3.41,9.119,6.005c2.521,2.595,4.448,5.783,5.783,9.563C746.621,540.695,747.326,544.883,747.326,549.554"/>
		</g>
		<path id="rect7528" sodipodi:nodetypes="ccccccccccccc" inkscape:connector-curvature="0" fill="#56AA1C" d="M587.063,336.8v32.25
			h-32.219v25.25h32.843V423.3h25.25v-28.406h35.906v-25.219H612.28V336.8H587.063z"/>
		
			<linearGradient id="path7584_1_" gradientUnits="userSpaceOnUse" x1="750.4903" y1="374.8986" x2="805.213" y2="459.5269" gradientTransform="matrix(2.4794 0 0 2.4794 -1265.0562 -544.7959)">
			<stop  offset="0" style="stop-color:#0072C6"/>
			<stop  offset="1" style="stop-color:#183E79"/>
		</linearGradient>
		<path id="path7584" inkscape:connector-curvature="0" fill="url(#path7584_1_)" d="M606.063,291.644c-10.539,0-19,8.492-19,19.031
			v12.782h25.219v-6.563h79.188v52.781h-29.25v25.219h4.594l44.688,26.063l-13-26.094c10.155-0.427,18.218-8.706,18.218-18.969
			v-65.219c0-10.538-8.492-19.031-19.031-19.031H606.063L606.063,291.644z M502.312,369.049c-10.539,0-19.031,8.524-19.031,19.062
			V453.3c0,10.538,8.492,19,19.031,19h4.875l-11.937,23.969l41.156-23.969h57.5c10.539,0,19.031-8.461,19.031-19v-16.657h-25.25
			v10.437h-79.156v-52.75H541.5v-25.281H502.312L502.312,369.049z"/>
		
			<linearGradient id="path7724_1_" gradientUnits="userSpaceOnUse" x1="747.4836" y1="365.8896" x2="765.7219" y2="392.1532" gradientTransform="matrix(2.4794 0 0 2.4794 -1265.0562 -544.7959)">
			<stop  offset="0" style="stop-color:#56AA1C"/>
			<stop  offset="1" style="stop-color:#8CD600"/>
		</linearGradient>
		<path id="path7724" inkscape:connector-curvature="0" fill="url(#path7724_1_)" d="M587.063,336.8v32.25h-32.219v25.25h32.843
			v4.594c22.691-7.026,43.316-15.671,61.157-25.5v-3.719h-36.563V336.8H587.063z"/>
		
			<linearGradient id="path7726_1_" gradientUnits="userSpaceOnUse" x1="739.8192" y1="347.2932" x2="782.7854" y2="409.9224" gradientTransform="matrix(2.4794 0 0 2.4794 -1265.0562 -544.7959)">
			<stop  offset="0" style="stop-color:#1E4E98"/>
			<stop  offset="1" style="stop-color:#0072C6"/>
		</linearGradient>
		<path id="path7726" inkscape:connector-curvature="0" fill="url(#path7726_1_)" d="M606.063,291.644c-10.539,0-19,8.492-19,19.031
			v12.782h25.219v-6.563h79.188v25.782c11.879-11.586,20.32-23.918,24.687-36.532c-2.031-8.332-9.498-14.5-18.468-14.5H606.063
			L606.063,291.644z M502.312,369.049c-10.539,0-19.031,8.524-19.031,19.062v29.375c8.312-0.491,16.74-1.211,25.25-2.187V394.33
			H541.5v-25.281H502.312z"/>
	</g>
</g>
</svg>
