<?xml version="1.0" encoding="UTF-8" standalone="no"?>
<!-- Created with Inkscape (http://www.inkscape.org/) -->

<svg
   xmlns:dc="http://purl.org/dc/elements/1.1/"
   xmlns:cc="http://creativecommons.org/ns#"
   xmlns:rdf="http://www.w3.org/1999/02/22-rdf-syntax-ns#"
   xmlns:svg="http://www.w3.org/2000/svg"
   xmlns="http://www.w3.org/2000/svg"
   xmlns:xlink="http://www.w3.org/1999/xlink"
   xmlns:sodipodi="http://sodipodi.sourceforge.net/DTD/sodipodi-0.dtd"
   xmlns:inkscape="http://www.inkscape.org/namespaces/inkscape"
   width="1200"
   height="1000"
   id="svg2"
   version="1.1"
   inkscape:version="0.48.3.1 r9886"
   sodipodi:docname="p2.svg"
   inkscape:export-filename="/media/vgb/Transcend1/BU8112013/Vladimir/INkscape/Designcrowd/periop/p1.png"
   inkscape:export-xdpi="90"
   inkscape:export-ydpi="90">
  <defs
     id="defs4">
    <linearGradient
       inkscape:collect="always"
       id="linearGradient8589">
      <stop
         style="stop-color:#ffffff;stop-opacity:1"
         offset="0"
         id="stop8591" />
      <stop
         style="stop-color:#b3b3b3;stop-opacity:1"
         offset="1"
         id="stop8593" />
    </linearGradient>
    <linearGradient
       inkscape:collect="always"
       id="linearGradient8579">
      <stop
         style="stop-color:#4d4d4d;stop-opacity:1"
         offset="0"
         id="stop8581" />
      <stop
         style="stop-color:#000000;stop-opacity:1"
         offset="1"
         id="stop8583" />
    </linearGradient>
    <linearGradient
       inkscape:collect="always"
       id="linearGradient8542">
      <stop
         style="stop-color:#1e4e98;stop-opacity:1"
         offset="0"
         id="stop8544" />
      <stop
         style="stop-color:#0072c6;stop-opacity:1"
         offset="1"
         id="stop8546" />
    </linearGradient>
    <linearGradient
       inkscape:collect="always"
       id="linearGradient8534">
      <stop
         style="stop-color:#0072c6;stop-opacity:1;"
         offset="0"
         id="stop8536" />
      <stop
         style="stop-color:#183e79;stop-opacity:1"
         offset="1"
         id="stop8538" />
    </linearGradient>
    <linearGradient
       inkscape:collect="always"
       id="linearGradient8526">
      <stop
         style="stop-color:#56aa1c;stop-opacity:1"
         offset="0"
         id="stop8528" />
      <stop
         style="stop-color:#8cd600;stop-opacity:1"
         offset="1"
         id="stop8530" />
    </linearGradient>
    <inkscape:path-effect
       is_visible="true"
       id="path-effect7712"
       effect="spiro" />
    <inkscape:path-effect
       effect="spiro"
       id="path-effect7709"
       is_visible="true" />
    <inkscape:path-effect
       is_visible="true"
       id="path-effect7580"
       effect="spiro" />
    <inkscape:path-effect
       effect="spiro"
       id="path-effect7576"
       is_visible="true" />
    <linearGradient
       inkscape:collect="always"
       xlink:href="#linearGradient8526"
       id="linearGradient8532"
       x1="586.15845"
       y1="363.80594"
       x2="604.39703"
       y2="390.06992"
       gradientUnits="userSpaceOnUse" />
    <linearGradient
       inkscape:collect="always"
       xlink:href="#linearGradient8534"
       id="linearGradient8540"
       x1="601.46918"
       y1="380.96594"
       x2="656.1922"
       y2="465.5947"
       gradientUnits="userSpaceOnUse"
       gradientTransform="translate(0,-52.362183)" />
    <linearGradient
       inkscape:collect="always"
       xlink:href="#linearGradient8542"
       id="linearGradient8548"
       x1="559.04266"
       y1="323.25058"
       x2="602.00903"
       y2="385.88004"
       gradientUnits="userSpaceOnUse" />
    <linearGradient
       inkscape:collect="always"
       xlink:href="#linearGradient8534"
       id="linearGradient8573"
       gradientUnits="userSpaceOnUse"
       gradientTransform="translate(0,-52.362183)"
       x1="601.46918"
       y1="380.96594"
       x2="656.1922"
       y2="465.5947" />
    <linearGradient
       inkscape:collect="always"
       xlink:href="#linearGradient8526"
       id="linearGradient8575"
       gradientUnits="userSpaceOnUse"
       x1="586.15845"
       y1="363.80594"
       x2="604.39703"
       y2="390.06992" />
    <linearGradient
       inkscape:collect="always"
       xlink:href="#linearGradient8542"
       id="linearGradient8577"
       gradientUnits="userSpaceOnUse"
       x1="559.04266"
       y1="323.25058"
       x2="602.00903"
       y2="385.88004" />
    <radialGradient
       inkscape:collect="always"
       xlink:href="#linearGradient8579"
       id="radialGradient8587"
       cx="600"
       cy="546.88538"
       fx="600"
       fy="546.88538"
       r="155.3884"
       gradientTransform="matrix(2.0467257,0,0,0.33493166,-628.03542,363.71616)"
       gradientUnits="userSpaceOnUse" />
    <radialGradient
       inkscape:collect="always"
       xlink:href="#linearGradient8589"
       id="radialGradient8595"
       cx="600"
       cy="546.88538"
       fx="600"
       fy="546.88538"
       r="155.3884"
       gradientTransform="matrix(1.9040017,0,0,0.27332805,-542.401,397.40627)"
       gradientUnits="userSpaceOnUse" />
    <radialGradient
       inkscape:collect="always"
       xlink:href="#linearGradient8579"
       id="radialGradient5543"
       gradientUnits="userSpaceOnUse"
       gradientTransform="matrix(2.0467257,0,0,0.33493166,-628.03542,363.71616)"
       cx="600"
       cy="546.88538"
       fx="600"
       fy="546.88538"
       r="155.3884" />
    <radialGradient
       inkscape:collect="always"
       xlink:href="#linearGradient8579"
       id="radialGradient5545"
       gradientUnits="userSpaceOnUse"
       gradientTransform="matrix(2.0467257,0,0,0.33493166,-628.03542,363.71616)"
       cx="600"
       cy="546.88538"
       fx="600"
       fy="546.88538"
       r="155.3884" />
    <radialGradient
       inkscape:collect="always"
       xlink:href="#linearGradient8579"
       id="radialGradient5547"
       gradientUnits="userSpaceOnUse"
       gradientTransform="matrix(2.0467257,0,0,0.33493166,-628.03542,363.71616)"
       cx="600"
       cy="546.88538"
       fx="600"
       fy="546.88538"
       r="155.3884" />
    <radialGradient
       inkscape:collect="always"
       xlink:href="#linearGradient8579"
       id="radialGradient5549"
       gradientUnits="userSpaceOnUse"
       gradientTransform="matrix(2.0467257,0,0,0.33493166,-628.03542,363.71616)"
       cx="600"
       cy="546.88538"
       fx="600"
       fy="546.88538"
       r="155.3884" />
    <radialGradient
       inkscape:collect="always"
       xlink:href="#linearGradient8579"
       id="radialGradient5551"
       gradientUnits="userSpaceOnUse"
       gradientTransform="matrix(2.0467257,0,0,0.33493166,-628.03542,363.71616)"
       cx="600"
       cy="546.88538"
       fx="600"
       fy="546.88538"
       r="155.3884" />
    <radialGradient
       inkscape:collect="always"
       xlink:href="#linearGradient8579"
       id="radialGradient5553"
       gradientUnits="userSpaceOnUse"
       gradientTransform="matrix(2.0467257,0,0,0.33493166,-628.03542,363.71616)"
       cx="600"
       cy="546.88538"
       fx="600"
       fy="546.88538"
       r="155.3884" />
    <radialGradient
       inkscape:collect="always"
       xlink:href="#linearGradient8579"
       id="radialGradient5555"
       gradientUnits="userSpaceOnUse"
       gradientTransform="matrix(2.0467257,0,0,0.33493166,-628.03542,363.71616)"
       cx="600"
       cy="546.88538"
       fx="600"
       fy="546.88538"
       r="155.3884" />
  </defs>
  <sodipodi:namedview
     id="base"
     pagecolor="#ffffff"
     bordercolor="#666666"
     borderopacity="1.0"
     inkscape:pageopacity="0.0"
     inkscape:pageshadow="2"
     inkscape:zoom="0.49497475"
     inkscape:cx="583.5088"
     inkscape:cy="535.50082"
     inkscape:document-units="px"
     inkscape:current-layer="layer1"
     showgrid="false"
     showguides="true"
     inkscape:guide-bbox="true"
     inkscape:window-width="1535"
     inkscape:window-height="876"
     inkscape:window-x="65"
     inkscape:window-y="24"
     inkscape:window-maximized="1" />
  <metadata
     id="metadata7">
    <rdf:RDF>
      <cc:Work
         rdf:about="">
        <dc:format>image/svg+xml</dc:format>
        <dc:type
           rdf:resource="http://purl.org/dc/dcmitype/StillImage" />
        <dc:title></dc:title>
      </cc:Work>
    </rdf:RDF>
  </metadata>
  <g
     inkscape:groupmode="layer"
     id="layer2"
     inkscape:label="pozadina">
    <rect
       style="color:#000000;fill:#ffffff;fill-opacity:1;fill-rule:nonzero;stroke:none;stroke-width:2;marker:none;visibility:visible;display:inline;overflow:visible;enable-background:accumulate"
       id="rect7652"
       width="1200"
       height="1000"
       x="1295.0155"
       y="107.07614" />
  </g>
  <g
     inkscape:label="Layer 1"
     inkscape:groupmode="layer"
     id="layer1"
     transform="translate(0,-52.362183)">
    <g
       id="g8551"
       transform="matrix(1.5745943,0,0,1.5745943,-338.67169,-148.78364)">
      <g
         style="font-size:111.20618439px;font-style:normal;font-variant:normal;font-weight:normal;font-stretch:normal;line-height:125%;letter-spacing:0px;word-spacing:0px;fill:url(#radialGradient5555);fill-opacity:1;stroke:none;font-family:PT Sans;-inkscape-font-specification:PT Sans"
         id="text3001">
        <path
           d="m 485.09066,549.55435 c -5e-5,-6.74647 -1.66814,-11.93609 -5.00427,-15.56887 -3.33623,-3.63268 -7.78447,-5.44905 -13.34475,-5.4491 -3.1138,5e-5 -5.56033,0.11126 -7.3396,0.33362 -1.70519,0.22246 -3.07673,0.48194 -4.11463,0.77844 l 0,36.47563 c 1.26031,1.03794 3.07668,2.03879 5.4491,3.00257 2.37237,0.96379 4.96718,1.44569 7.78443,1.44568 2.96547,10e-6 5.48614,-0.51896 7.56202,-1.55689 2.14995,-1.11205 3.89218,-2.5948 5.22669,-4.44825 1.33443,-1.92755 2.29822,-4.15168 2.89136,-6.67237 0.59306,-2.59479 0.8896,-5.37494 0.88965,-8.34046 m 10.787,0 c -6e-5,4.37413 -0.59316,8.41462 -1.7793,12.12147 -1.11211,3.70689 -2.78021,6.8948 -5.00427,9.56373 -2.22418,2.66896 -4.96726,4.7448 -8.22926,6.22755 -3.18795,1.48275 -6.85775,2.22412 -11.00941,2.22412 -3.33622,0 -6.30171,-0.44482 -8.8965,-1.33447 -2.52069,-0.88965 -4.4112,-1.74223 -5.67151,-2.55774 l 0,23.13088 -10.34218,0 0,-76.62106 c 2.44653,-0.59304 5.48616,-1.22321 9.11891,-1.8905 3.70685,-0.74132 7.96975,-1.112 12.78871,-1.11206 4.44821,6e-5 8.45163,0.70436 12.01027,2.11291 3.55855,1.40867 6.59818,3.41038 9.1189,6.00514 2.52062,2.59486 4.4482,5.78276 5.78273,9.56373 1.40855,3.70691 2.11285,7.89567 2.11291,12.5663"
           style="font-weight:500;letter-spacing:-2.62015653px;fill:url(#radialGradient5543);font-family:Ubuntu;-inkscape-font-specification:Ubuntu Medium"
           id="path5500"
           inkscape:connector-curvature="0" />
        <path
           d="m 504.69437,549.55435 c 0,-5.11545 0.74137,-9.56369 2.22413,-13.34474 1.48274,-3.85511 3.44738,-7.04301 5.89392,-9.56374 2.44652,-2.52061 5.26374,-4.41112 8.45167,-5.67151 3.18789,-1.26028 6.44993,-1.89045 9.78615,-1.89051 7.78439,6e-5 13.75245,2.4466 17.90419,7.33961 4.15165,4.81898 6.22749,12.19565 6.22755,22.13003 -6e-5,0.44486 -6e-5,1.03796 0,1.7793 -6e-5,0.66727 -0.0371,1.29743 -0.11121,1.89051 l -39.5894,0 c 0.44481,6.00515 2.18704,10.5646 5.22669,13.67836 3.03961,3.11378 7.78441,4.67067 14.2344,4.67066 3.63269,10e-6 6.67232,-0.29654 9.1189,-0.88965 2.52063,-0.66723 4.41113,-1.2974 5.67152,-1.89051 l 1.44568,8.67409 c -1.26039,0.66723 -3.48451,1.37154 -6.67237,2.11291 -3.11382,0.74138 -6.67241,1.11206 -10.6758,1.11206 -5.04137,0 -9.41548,-0.74137 -13.12233,-2.22412 -3.63275,-1.55688 -6.63531,-3.6698 -9.0077,-6.33875 -2.37241,-2.66894 -4.1517,-5.81978 -5.33789,-9.45253 -1.11207,-3.70685 -1.6681,-7.74734 -1.6681,-12.12147 m 39.70061,-5.67152 c 0.0741,-4.67062 -1.11211,-8.48869 -3.5586,-11.45423 -2.37244,-3.03959 -5.67155,-4.55941 -9.89735,-4.55946 -2.37243,5e-5 -4.48534,0.48195 -6.33875,1.44568 -1.77932,0.8897 -3.29914,2.0759 -4.55945,3.5586 -1.26036,1.48279 -2.26121,3.18795 -3.00257,5.11549 -0.66725,1.92761 -1.11208,3.89225 -1.33447,5.89392 l 28.69119,0"
           style="font-weight:500;letter-spacing:-2.62015653px;fill:url(#radialGradient5545);font-family:Ubuntu;-inkscape-font-specification:Ubuntu Medium"
           id="path5502"
           inkscape:connector-curvature="0" />
        <path
           d="m 588.76986,519.30627 c 0.88962,6e-5 1.89048,0.0742 3.00257,0.22241 1.18617,0.0742 2.3353,0.22247 3.44739,0.44482 1.11203,0.14834 2.11288,0.33368 3.00257,0.55603 0.96375,0.14834 1.66805,0.29661 2.11292,0.44483 l -1.7793,9.0077 c -0.81555,-0.2965 -2.18709,-0.63012 -4.11463,-1.00086 -1.85347,-0.44477 -4.26294,-0.66718 -7.2284,-0.66723 -1.9276,5e-5 -3.85518,0.22246 -5.78272,0.66723 -1.85346,0.37074 -3.07673,0.63022 -3.66981,0.77845 l 0,48.5971 -10.34217,0 0,-55.38068 c 2.44652,-0.88959 5.48615,-1.7051 9.1189,-2.44654 3.63272,-0.81545 7.71027,-1.2232 12.23268,-1.22326"
           style="font-weight:500;letter-spacing:-2.62015653px;fill:url(#radialGradient5547);font-family:Ubuntu;-inkscape-font-specification:Ubuntu Medium"
           id="path5504"
           inkscape:connector-curvature="0" />
        <path
           d="m 618.1458,578.35675 -10.34217,0 0,-57.82722 10.34217,0 0,57.82722 m -5.22669,-68.2806 c -1.85344,7e-5 -3.4474,-0.59303 -4.78186,-1.7793 -1.26035,-1.26026 -1.89051,-2.92835 -1.89051,-5.00427 0,-2.07578 0.63016,-3.7068 1.89051,-4.89308 1.33446,-1.26025 2.92842,-1.89042 4.78186,-1.8905 1.85342,8e-5 3.41031,0.63025 4.67066,1.8905 1.33446,1.18628 2.00169,2.8173 2.00172,4.89308 -3e-5,2.07592 -0.66726,3.74401 -2.00172,5.00427 -1.26035,1.18627 -2.81724,1.77937 -4.67066,1.7793"
           style="font-weight:500;letter-spacing:-2.62015653px;fill:url(#radialGradient5549);font-family:Ubuntu;-inkscape-font-specification:Ubuntu Medium"
           id="path5506"
           inkscape:connector-curvature="0" />
        <path
           d="m 684.46307,549.44314 c -6e-5,4.59655 -0.6673,8.74824 -2.00171,12.4551 -1.33453,3.70688 -3.22504,6.89479 -5.67152,9.56373 -2.37245,2.66895 -5.22674,4.7448 -8.56288,6.22754 -3.33622,1.40861 -6.96895,2.11292 -10.8982,2.11292 -3.92932,0 -7.56205,-0.70431 -10.89821,-2.11292 -3.3362,-1.48274 -6.22756,-3.55859 -8.67408,-6.22754 -2.37241,-2.66894 -4.22584,-5.85685 -5.56031,-9.56373 -1.33448,-3.70686 -2.00172,-7.85855 -2.00171,-12.4551 -10e-6,-4.52235 0.66723,-8.63697 2.00171,-12.34388 1.33447,-3.78097 3.1879,-7.00595 5.56031,-9.67494 2.44652,-2.6689 5.33788,-4.70767 8.67408,-6.11634 3.33616,-1.48269 6.96889,-2.22407 10.89821,-2.22413 3.92925,6e-5 7.56198,0.74144 10.8982,2.22413 3.33614,1.40867 6.19043,3.44744 8.56288,6.11634 2.44648,2.66899 4.33699,5.89397 5.67152,9.67494 1.33441,3.70691 2.00165,7.82153 2.00171,12.34388 m -10.787,0 c -5e-5,-6.52406 -1.4828,-11.67661 -4.44825,-15.45766 -2.8914,-3.8551 -6.85775,-5.78267 -11.89906,-5.78272 -5.04138,5e-5 -9.0448,1.92762 -12.01027,5.78272 -2.89138,3.78105 -4.33706,8.9336 -4.33704,15.45766 -2e-5,6.52412 1.44566,11.71374 4.33704,15.56887 2.96547,3.78102 6.96889,5.67152 12.01027,5.67151 5.04131,10e-6 9.00766,-1.89049 11.89906,-5.67151 2.96545,-3.85513 4.4482,-9.04475 4.44825,-15.56887"
           style="font-weight:500;letter-spacing:-2.62015653px;fill:url(#radialGradient5551);font-family:Ubuntu;-inkscape-font-specification:Ubuntu Medium"
           id="path5508"
           inkscape:connector-curvature="0" />
        <path
           d="m 736.53897,549.55435 c -5e-5,-6.74647 -1.66814,-11.93609 -5.00428,-15.56887 -3.33623,-3.63268 -7.78447,-5.44905 -13.34474,-5.4491 -3.1138,5e-5 -5.56034,0.11126 -7.33961,0.33362 -1.70518,0.22246 -3.07673,0.48194 -4.11463,0.77844 l 0,36.47563 c 1.26032,1.03794 3.07668,2.03879 5.4491,3.00257 2.37237,0.96379 4.96718,1.44569 7.78444,1.44568 2.96546,10e-6 5.48613,-0.51896 7.56202,-1.55689 2.14994,-1.11205 3.89217,-2.5948 5.22669,-4.44825 1.33442,-1.92755 2.29821,-4.15168 2.89136,-6.67237 0.59305,-2.59479 0.8896,-5.37494 0.88965,-8.34046 m 10.787,0 c -6e-5,4.37413 -0.59316,8.41462 -1.7793,12.12147 -1.11212,3.70689 -2.78021,6.8948 -5.00428,9.56373 -2.22417,2.66896 -4.96726,4.7448 -8.22926,6.22755 -3.18795,1.48275 -6.85775,2.22412 -11.00941,2.22412 -3.33622,0 -6.30171,-0.44482 -8.89649,-1.33447 -2.5207,-0.88965 -4.4112,-1.74223 -5.67152,-2.55774 l 0,23.13088 -10.34218,0 0,-76.62106 c 2.44653,-0.59304 5.48616,-1.22321 9.11891,-1.8905 3.70685,-0.74132 7.96975,-1.112 12.78871,-1.11206 4.44821,6e-5 8.45163,0.70436 12.01027,2.11291 3.55855,1.40867 6.59818,3.41038 9.11891,6.00514 2.52062,2.59486 4.44819,5.78276 5.78272,9.56373 1.40855,3.70691 2.11286,7.89567 2.11292,12.5663"
           style="font-weight:500;letter-spacing:-2.62015653px;fill:url(#radialGradient5553);font-family:Ubuntu;-inkscape-font-specification:Ubuntu Medium"
           id="path5510"
           inkscape:connector-curvature="0" />
      </g>
      <path
         style="color:#000000;fill:#56aa1c;fill-opacity:1;fill-rule:nonzero;stroke:none;stroke-width:2;marker:none;visibility:visible;display:inline;overflow:visible;enable-background:accumulate"
         d="m 587.0625,336.79968 0,32.25 -32.21875,0 0,25.25 32.84375,0 0,29 25.25,0 0,-28.40625 35.90625,0 0,-25.21875 -36.5625,0 0,-32.875 z"
         id="rect7528"
         inkscape:connector-curvature="0"
         sodipodi:nodetypes="ccccccccccccc" />
      <path
         id="path7584"
         transform="translate(0,52.362183)"
         d="m 606.0625,239.28125 c -10.53894,0 -19,8.49231 -19,19.03125 l 0,12.78125 25.21875,0 0,-6.5625 79.1875,0 0,52.78125 -29.25,0 0,25.21875 4.59375,0 44.6875,26.0625 -13,-26.09375 c 10.15441,-0.42724 18.21875,-8.7059 18.21875,-18.96875 l 0,-65.21875 c 0,-10.53894 -8.49231,-19.03125 -19.03125,-19.03125 l -91.625,0 z m -103.75,77.40625 c -10.53894,0 -19.03125,8.52356 -19.03125,19.0625 l 0,65.1875 c 0,10.53894 8.49231,19 19.03125,19 l 4.875,0 -11.9375,23.96875 41.15625,-23.96875 57.5,0 c 10.53894,0 19.03125,-8.46106 19.03125,-19 l 0,-16.65625 -25.25,0 0,10.4375 -79.15625,0 0,-52.75 32.96875,0 0,-25.28125 -39.1875,0 z"
         style="color:#000000;fill:url(#linearGradient8540);fill-opacity:1;fill-rule:nonzero;stroke:none;stroke-width:2;marker:none;visibility:visible;display:inline;overflow:visible;enable-background:accumulate"
         inkscape:connector-curvature="0" />
      <path
         style="color:#000000;fill:url(#linearGradient8532);fill-opacity:1;fill-rule:nonzero;stroke:none;stroke-width:2;marker:none;visibility:visible;display:inline;overflow:visible;enable-background:accumulate"
         d="m 587.0625,336.79968 0,32.25 -32.21875,0 0,25.25 32.84375,0 0,4.59375 c 22.6904,-7.026 43.31583,-15.67088 61.15625,-25.5 l 0,-3.71875 -36.5625,0 0,-32.875 -25.21875,0 z"
         id="path7724"
         inkscape:connector-curvature="0" />
      <path
         style="color:#000000;fill:url(#linearGradient8548);fill-opacity:1;fill-rule:nonzero;stroke:none;stroke-width:2;marker:none;visibility:visible;display:inline;overflow:visible;enable-background:accumulate"
         d="m 606.0625,291.64343 c -10.53894,0 -19,8.49231 -19,19.03125 l 0,12.78125 25.21875,0 0,-6.5625 79.1875,0 0,25.78125 c 11.87943,-11.58607 20.32044,-23.91762 24.6875,-36.53125 -2.0309,-8.33225 -9.49788,-14.5 -18.46875,-14.5 l -91.625,0 z m -103.75,77.40625 c -10.53894,0 -19.03125,8.52356 -19.03125,19.0625 l 0,29.375 c 8.31238,-0.49147 16.73985,-1.21136 25.25,-2.1875 l 0,-20.96875 32.96875,0 0,-25.28125 -39.1875,0 z"
         id="path7726"
         inkscape:connector-curvature="0" />
    </g>
  </g>
</svg>
